<svg width="25" height="26" viewBox="0 0 25 26" fill="none" xmlns="http://www.w3.org/2000/svg">
<path d="M17.6791 6.34392L16.7588 7.28931L17.6791 6.34392" stroke="white" stroke-width="2" stroke-linecap="round" stroke-linejoin="round"/>
<path fill-rule="evenodd" clip-rule="evenodd" d="M11.6957 12.8618L14.1996 20.3732C14.3132 20.7142 14.615 20.9578 14.9723 20.997C15.3296 21.0362 15.677 20.8639 15.8619 20.5557L17.4061 17.982C17.5474 17.7465 17.7445 17.5494 17.98 17.408L20.5537 15.8638C20.8619 15.6789 21.0343 15.3314 20.9951 14.9742C20.9558 14.6169 20.7122 14.3151 20.3713 14.2014L12.8599 11.6976C12.5292 11.5874 12.1645 11.6735 11.918 11.92C11.6715 12.1665 11.5855 12.5311 11.6957 12.8618Z" stroke="white" stroke-width="2" stroke-linecap="round" stroke-linejoin="round"/>
<path d="M20.4339 20.4358L17.8828 17.8848" stroke="white" stroke-width="2" stroke-linecap="round" stroke-linejoin="round"/>
<path d="M12.0073 3.99609L12.0243 5.31509" stroke="white" stroke-width="2" stroke-linecap="round" stroke-linejoin="round"/>
<path d="M6.34001 6.34375L7.28541 7.26213L6.34001 6.34375" stroke="white" stroke-width="2" stroke-linecap="round" stroke-linejoin="round"/>
<path d="M3.99219 12.0136L5.31174 11.9946L3.99219 12.0136" stroke="white" stroke-width="2" stroke-linecap="round" stroke-linejoin="round"/>
<path d="M6.34001 17.6831L7.28541 16.7627L6.34001 17.6831" stroke="white" stroke-width="2" stroke-linecap="round" stroke-linejoin="round"/>
</svg>
