<svg width="24" height="24" viewBox="0 0 24 24" fill="none" xmlns="http://www.w3.org/2000/svg">
<path d="M12 15.9H3.9C2.85 15.9 2 15.05 2 14V4.9C2 3.85 2.85 3 3.9 3H19.1C20.15 3 21 3.85 21 4.9V10" stroke="#323232" stroke-width="1.5" stroke-linecap="round" stroke-linejoin="round"/>
<path d="M13.1793 7.97139C14.1063 8.89839 14.1063 10.4024 13.1793 11.3304C12.2523 12.2574 10.7483 12.2574 9.82025 11.3304C8.89325 10.4034 8.89325 8.89939 9.82025 7.97139C10.7483 7.04339 12.2523 7.04339 13.1793 7.97139" stroke="#323232" stroke-width="1.5" stroke-linecap="round" stroke-linejoin="round"/>
<path d="M22 16.7996V13.9996C22 13.2256 20.432 12.5996 18.5 12.5996C16.568 12.5996 15.001 13.2266 15 13.9996V19.5996C15.001 20.3726 16.567 20.9996 18.5 20.9996C20.433 20.9996 21.999 20.3726 22 19.5996V13.9996" stroke="#323232" stroke-width="1.5" stroke-linecap="round" stroke-linejoin="round"/>
<path d="M15 14C15 14.773 16.567 15.4 18.5 15.4C20.433 15.4 21.999 14.773 21.999 14" stroke="#323232" stroke-width="1.5" stroke-linecap="round" stroke-linejoin="round"/>
<path d="M15 16.8008C15 17.5738 16.567 18.2008 18.5 18.2008C20.433 18.2008 22 17.5738 22 16.8008" stroke="#323232" stroke-width="1.5" stroke-linecap="round" stroke-linejoin="round"/>
<path d="M6 13H5" stroke="#323232" stroke-width="1.5" stroke-linecap="round" stroke-linejoin="round"/>
<path d="M18 6H17" stroke="#323232" stroke-width="1.5" stroke-linecap="round" stroke-linejoin="round"/>
</svg>
