<svg width="28" height="28" viewBox="0 0 28 28" fill="none" xmlns="http://www.w3.org/2000/svg">
<g filter="url(#filter0_d_8269_14200)">
<path fill-rule="evenodd" clip-rule="evenodd" d="M5 6.8V6.8C5 7.4 5.3 7.9 5.8 8.3L11.8 12.4C13.2 13.3 14.9 13.3 16.3 12.4L22.3 8.4C22.7 7.9 23 7.4 23 6.8V6.8C23 5.8 22.2 5 21.2 5H6.8C5.8 5 5 5.8 5 6.8Z" stroke="#333333" stroke-width="1.5" stroke-linecap="round" stroke-linejoin="round"/>
<path d="M5 7V17C5 18.1 5.9 19 7 19H21C22.1 19 23 18.1 23 17V7" stroke="#333333" stroke-width="1.5" stroke-linecap="round" stroke-linejoin="round"/>
<path d="M5.58594 18.4124L11.6799 12.3184" stroke="#333333" stroke-width="1.5" stroke-linecap="round" stroke-linejoin="round"/>
<path d="M16.3594 12.3594L22.4114 18.4114" stroke="#333333" stroke-width="1.5" stroke-linecap="round" stroke-linejoin="round"/>
</g>
<defs>
<filter id="filter0_d_8269_14200" x="0.25" y="4.25" width="27.5" height="23.5" filterUnits="userSpaceOnUse" color-interpolation-filters="sRGB">
<feFlood flood-opacity="0" result="BackgroundImageFix"/>
<feColorMatrix in="SourceAlpha" type="matrix" values="0 0 0 0 0 0 0 0 0 0 0 0 0 0 0 0 0 0 127 0" result="hardAlpha"/>
<feOffset dy="4"/>
<feGaussianBlur stdDeviation="2"/>
<feComposite in2="hardAlpha" operator="out"/>
<feColorMatrix type="matrix" values="0 0 0 0 0 0 0 0 0 0 0 0 0 0 0 0 0 0 0.25 0"/>
<feBlend mode="normal" in2="BackgroundImageFix" result="effect1_dropShadow_8269_14200"/>
<feBlend mode="normal" in="SourceGraphic" in2="effect1_dropShadow_8269_14200" result="shape"/>
</filter>
</defs>
</svg>
