<svg width="21" height="20" viewBox="0 0 21 20" fill="none" xmlns="http://www.w3.org/2000/svg">
<path fill-rule="evenodd" clip-rule="evenodd" d="M10.319 10.4307C9.809 10.9897 8.256 12.5517 6.816 12.5517V12.5497L6.811 12.5517V12.5517C5.535 12.5527 4.5 11.5167 4.5 10.2397C4.5 8.96274 5.535 7.92674 6.812 7.92774V7.92774L6.817 7.92974V7.92774C8.257 7.92774 9.81 9.48874 10.32 10.0487C10.319 10.0487 10.5 10.2397 10.5 10.2397L10.319 10.4307V10.4307Z" stroke="#323232" stroke-width="1.5" stroke-linecap="round" stroke-linejoin="round"/>
<path fill-rule="evenodd" clip-rule="evenodd" d="M10.681 10.4307C11.191 10.9897 12.744 12.5517 14.184 12.5517V12.5497L14.189 12.5517V12.5517C15.465 12.5527 16.5 11.5167 16.5 10.2397C16.5 8.96274 15.465 7.92674 14.188 7.92774V7.92774L14.183 7.92974V7.92774C12.743 7.92774 11.19 9.48874 10.68 10.0487C10.681 10.0487 10.5 10.2397 10.5 10.2397L10.681 10.4307V10.4307Z" stroke="#323232" stroke-width="1.5" stroke-linecap="round" stroke-linejoin="round"/>
<path d="M16.8639 3.87627C20.3787 7.39099 20.3787 13.0895 16.8639 16.6042C13.3492 20.1189 7.65074 20.1189 4.13604 16.6042C0.62132 13.0895 0.62132 7.39097 4.13604 3.87627C7.65076 0.361554 13.3492 0.361554 16.8639 3.87627" stroke="#323232" stroke-width="1.5" stroke-linecap="round" stroke-linejoin="round"/>
</svg>
