<svg width="24" height="24" viewBox="0 0 24 24" fill="none" xmlns="http://www.w3.org/2000/svg">
<path fill-rule="evenodd" clip-rule="evenodd" d="M12 15.6015V19.203C12 20.1975 12.8063 21.0037 13.8008 21.0038H19.203C20.1975 21.0037 21.0037 20.1975 21.0037 19.203V15.6015C21.0037 14.607 20.1975 13.8009 19.203 13.8008H13.8008C12.8063 13.8009 12 14.607 12 15.6015Z" stroke="#323232" stroke-width="1.5" stroke-linecap="round" stroke-linejoin="round"/>
<path d="M21.0037 17.0022H12" stroke="#323232" stroke-width="1.5" stroke-linecap="round" stroke-linejoin="round"/>
<path d="M17.9984 10.9979V8.62193C17.9984 7.5169 17.1026 6.62109 15.9976 6.62109H4.99302C3.88799 6.62109 2.99219 7.5169 2.99219 8.62193V19.0013C2.99219 20.1063 3.88799 21.0021 4.99302 21.0021H8.99469" stroke="#323232" stroke-width="1.5" stroke-linecap="round" stroke-linejoin="round"/>
<path fill-rule="evenodd" clip-rule="evenodd" d="M10.4936 2.37109V2.37109C8.55984 2.37109 6.99219 3.93875 6.99219 5.87255V5.87255V6.62286H13.9951V5.87255C13.9951 3.93875 12.4274 2.37109 10.4936 2.37109Z" stroke="#323232" stroke-width="1.5" stroke-linecap="round" stroke-linejoin="round"/>
</svg>
