<svg width="57" height="56" viewBox="0 0 57 56" fill="none" xmlns="http://www.w3.org/2000/svg">
<path d="M21.1741 20.743V35.3982C21.1741 36.4939 21.6627 37.2929 22.6399 37.7951C23.6171 38.2973 24.571 38.2516 25.5017 37.6581L37.0883 30.399C37.9724 29.8968 38.4145 29.1207 38.4145 28.0706C38.4145 27.0205 37.9724 26.2444 37.0883 25.7422L25.5017 18.4831C24.571 17.8896 23.6171 17.8439 22.6399 18.3461C21.6627 18.8483 21.1741 19.6473 21.1741 20.743ZM28.154 55.4634C24.2918 55.4634 20.6622 54.7439 17.2654 53.3049C13.8685 51.8677 10.9136 49.9164 8.40087 47.451C5.8881 44.9857 3.89929 42.0866 2.43444 38.7538C0.967731 35.421 0.234375 31.8599 0.234375 28.0706C0.234375 24.2812 0.967731 20.7202 2.43444 17.3874C3.89929 14.0546 5.8881 11.1555 8.40087 8.69015C10.9136 6.22479 13.8685 4.27259 17.2654 2.83355C20.6622 1.39634 24.2918 0.677734 28.154 0.677734C32.0162 0.677734 35.6458 1.39634 39.0427 2.83355C42.4396 4.27259 45.3944 6.22479 47.9072 8.69015C50.4199 11.1555 52.4087 14.0546 53.8736 17.3874C55.3403 20.7202 56.0737 24.2812 56.0737 28.0706C56.0737 31.8599 55.3403 35.421 53.8736 38.7538C52.4087 42.0866 50.4199 44.9857 47.9072 47.451C45.3944 49.9164 42.4396 51.8677 39.0427 53.3049C35.6458 54.7439 32.0162 55.4634 28.154 55.4634ZM28.154 49.9849C34.3429 49.9849 39.6132 47.851 43.9649 43.5832C48.3148 39.3135 50.4897 34.1427 50.4897 28.0706C50.4897 21.9985 48.3148 16.8277 43.9649 12.558C39.6132 8.29021 34.3429 6.15631 28.154 6.15631C21.9652 6.15631 16.6958 8.29021 12.3459 12.558C7.99417 16.8277 5.8183 21.9985 5.8183 28.0706C5.8183 34.1427 7.99417 39.3135 12.3459 43.5832C16.6958 47.851 21.9652 49.9849 28.154 49.9849Z" fill="white"/>
</svg>
